<svg xmlns="http://www.w3.org/2000/svg" viewBox="0 0 500 500" xmlns:bx="https://boxy-svg.com">
  <defs>
    <bx:export>
      <bx:file format="svg"></bx:file>
    </bx:export>
  </defs>
  <g>
    <path style="fill: rgb(203, 68, 52);" d="M 404.181 171.438 C 399.869 171.438 395.664 171.803 391.491 172.361 C 387.844 105.254 332.291 51.986 264.273 51.986 C 208.773 51.986 166.479 92.382 149.015 141.918 C 139.694 139.472 125.009 133.25 114.915 133.25 C 51.468 133.25 0.012 184.695 0.012 248.176 C 0.012 311.613 51.468 363.058 114.915 363.058 C 118.777 363.058 123.164 363.058 127.969 363.058 C 150.13 396.224 187.899 418.129 230.688 418.129 C 234.11 418.129 237.585 417.978 241.071 417.7 C 245.104 430.271 255.445 440.183 269.497 444.903 C 275.632 446.983 282.273 448.014 289.232 448.014 C 296.442 448.014 303.725 446.898 310.878 444.688 C 320.693 441.62 329.79 436.301 337.139 429.242 C 346.288 420.532 352.348 409.527 354.001 398.822 C 354.258 397.62 354.399 396.376 354.419 395.131 C 354.527 393.501 354.527 391.892 354.419 390.325 L 354.419 379.019 C 357.433 380.864 360.865 381.787 364.352 381.787 C 367.795 381.787 371.249 380.885 374.339 378.976 C 375.379 378.332 380.979 374.75 387.403 367.885 C 388.818 366.382 390.106 364.688 391.436 363.057 C 396.563 363.057 400.908 363.057 404.179 363.057 C 457.083 363.057 499.988 320.15 499.988 267.226 C 499.99 214.323 457.084 171.438 404.181 171.438 Z M 309.411 362.371 L 309.411 360.719 C 309.827 360.741 310.257 360.805 310.676 360.848 C 310.258 361.363 309.828 361.878 309.411 362.371 Z M 252.067 387.428 C 250.254 390.711 249.16 394.101 248.73 397.448 C 242.863 398.477 236.845 399.035 230.689 399.035 C 199.215 399.035 171.07 385.069 151.955 363.058 C 136.015 344.737 126.297 320.86 126.297 294.665 C 126.297 237.042 173.032 190.296 230.688 190.296 C 262.761 190.296 291.454 204.798 310.579 227.561 L 310.579 246.997 L 265.076 275.765 C 266.674 278.726 267.951 281.837 268.724 285.162 L 310.579 272.505 L 310.579 360.141 C 302.963 359.54 294.629 360.42 286.283 362.887 C 286.112 362.93 285.95 363.016 285.779 363.058 C 270.441 367.735 257.847 376.788 252.067 387.428 Z M 382.663 342.355 C 379.724 347.504 376.462 351.644 373.524 354.777 C 368.46 360.183 364.34 362.714 364.34 362.714 C 364.34 362.714 366.648 358.252 368.567 351.365 C 370.154 345.724 371.442 338.494 371.002 330.727 C 370.574 322.94 368.374 314.638 362.924 306.957 C 356.338 297.689 348.604 292.282 341.964 289.214 C 341.794 289.128 341.631 289.065 341.449 288.979 C 339.24 288.013 337.191 287.284 335.335 286.747 L 335.335 363.057 L 335.335 391.096 C 335.453 392.32 335.421 393.585 335.281 394.915 C 335.292 394.893 335.314 394.893 335.335 394.893 C 335.314 394.893 335.292 394.893 335.281 394.915 C 334.563 401.609 330.509 409.16 323.943 415.424 C 319.02 420.144 312.669 424.133 305.214 426.451 C 294.584 429.755 283.997 429.647 275.609 426.816 C 267.521 424.091 261.429 418.878 259.198 411.713 C 257.46 406.092 258.393 400.063 261.343 394.465 C 266.052 385.498 275.996 377.517 288.803 373.548 C 293.136 372.196 297.48 371.446 301.664 371.167 C 304.721 370.974 307.735 371.059 310.577 371.403 C 310.845 371.446 311.103 371.446 311.371 371.489 C 313.602 371.789 315.726 372.282 317.732 372.883 C 319.33 373.398 320.832 373.999 322.259 374.664 C 322.398 374.557 322.581 374.515 322.72 374.407 L 322.72 363.058 L 322.72 222.582 C 322.72 222.582 327.375 223.462 334.283 226.015 C 334.605 224.9 334.809 226.208 334.809 226.208 C 352.186 232.666 382.842 249.356 390.104 288.015 C 394.709 312.471 389.56 330.256 382.663 342.355 Z M 203.7 265.982 C 209.128 260.533 215.789 257.165 222.793 255.556 L 210.544 208.23 C 195.365 211.92 180.97 219.579 169.096 231.421 C 165.643 234.918 162.64 238.608 159.861 242.513 L 199.496 271.132 C 200.761 269.329 202.08 267.591 203.7 265.982 Z M 230.774 268.106 C 216.378 268.106 204.687 279.777 204.687 294.193 C 204.687 308.61 216.378 320.28 230.774 320.28 C 245.169 320.28 256.872 308.609 256.872 294.193 C 256.872 279.777 245.169 268.106 230.774 268.106 Z M 194.583 308.975 L 149.294 327.36 C 154.937 341.176 163.925 353.233 175.306 362.5 C 184.906 351.216 196.426 337.121 206.488 324.636 C 201.318 320.495 197.124 315.174 194.583 308.975 Z"></path>
  </g>
</svg>